<svg version="1.1" xmlns="http://www.w3.org/2000/svg" xmlns:xlink="http://www.w3.org/1999/xlink">
  <defs>
    <symbol id="icon-plus" fill="none">
      <path d="M7.98373 1.45158C9.27565 1.45158 10.5386 1.83468 11.6128 2.55244C12.687 3.27019 13.5242 4.29037 14.0186 5.48395C14.513 6.67754 14.6424 7.99092 14.3903 9.25802C14.1383 10.5251 13.5161 11.689 12.6026 12.6026C11.6891 13.5161 10.5252 14.1382 9.25807 14.3903C7.99097 14.6423 6.67759 14.5129 5.484 14.0185C4.29042 13.5241 3.27025 12.6869 2.55249 11.6127C1.83473 10.5385 1.45163 9.2756 1.45163 7.98368C1.45832 6.25332 2.14867 4.59574 3.37223 3.37218C4.59579 2.14862 6.25337 1.45827 7.98373 1.45158ZM7.98373 5.77648e-06C6.40611 0.00645971 4.86578 0.480174 3.55717 1.36134C2.24857 2.24252 1.23037 3.49164 0.631106 4.95102C0.031846 6.4104 -0.121605 8.01461 0.190125 9.56114C0.501855 11.1077 1.26479 12.5272 2.38262 13.6404C3.50044 14.7537 4.92304 15.5108 6.47082 15.8162C8.01861 16.1217 9.62218 15.9617 11.0791 15.3564C12.536 14.7512 13.781 13.7279 14.6568 12.4158C15.5326 11.1036 16 9.5613 16.0001 7.98368C16.0001 6.93249 15.7925 5.89165 15.3892 4.92089C14.986 3.95014 14.395 3.06857 13.6502 2.32679C12.9053 1.58501 12.0214 0.997618 11.049 0.598327C10.0766 0.199035 9.0349 -0.00429452 7.98373 5.77648e-06Z" fill="currentColor"/>
      <path d="M11.707 7.38127H8.4954V4.16966H7.41397V7.38127H4.19873V8.4627H7.41397V11.6743H8.4954V8.4627H11.707V7.38127Z" fill="currentColor"/>
    </symbol>
    
    <symbol id="icon-trash" fill="none">
      <path d="M10.3737 5.69769H8.85303V12.0083H10.3737V5.69769Z" fill="currentColor"/>
      <path d="M7.24232 5.69769H5.72168V12.0083H7.24232V5.69769Z" fill="currentColor"/>
      <path d="M15.2606 2.47671C15.2576 2.32069 15.2051 2.16967 15.1107 2.04543C15.0163 1.92119 14.8848 1.83017 14.7353 1.78551V1.78551C14.6681 1.7575 14.597 1.74002 14.5245 1.73367H10.4706C10.3171 1.23189 10.0067 0.792634 9.58484 0.480538C9.16303 0.168443 8.65216 0 8.12744 0C7.60272 0 7.09186 0.168443 6.67005 0.480538C6.24823 0.792634 5.93775 1.23189 5.78428 1.73367H1.73041C1.66363 1.73501 1.59736 1.74548 1.53342 1.76478H1.51614C1.35792 1.81372 1.22096 1.91483 1.12758 2.0516C1.0342 2.18837 0.989908 2.35275 1.00194 2.51793C1.01396 2.6831 1.0816 2.83933 1.19381 2.96113C1.30601 3.08294 1.45618 3.16314 1.61982 3.18864L2.43197 14.3238C2.44436 14.7574 2.61935 15.1705 2.92218 15.481C3.22501 15.7915 3.63354 15.9768 4.06666 16H12.1848C12.6185 15.9776 13.0279 15.7927 13.3314 15.4821C13.635 15.1715 13.8105 14.758 13.8229 14.3238L14.6316 3.19901C14.806 3.17482 14.9657 3.08836 15.0813 2.9556C15.1969 2.82285 15.2606 2.65275 15.2606 2.47671V2.47671ZM8.12744 1.38807C8.27554 1.38809 8.42202 1.41881 8.55765 1.47829C8.69327 1.53778 8.81509 1.62473 8.91541 1.73367H7.33948C7.43954 1.6244 7.5613 1.53722 7.69699 1.47771C7.83267 1.4182 7.97928 1.38767 8.12744 1.38807V1.38807ZM12.1848 14.6176H4.06666C3.97335 14.6176 3.82819 14.4655 3.81091 14.2236L3.00912 3.21284H13.2458L12.444 14.2236C12.4267 14.4655 12.2815 14.6176 12.1848 14.6176Z" fill="currentColor"/>
    </symbol>
  </defs>
</svg>
